<?xml version="1.0" encoding="UTF-8" standalone="no"?>
<!DOCTYPE svg PUBLIC "-//W3C//DTD SVG 1.1//EN" "http://www.w3.org/Graphics/SVG/1.1/DTD/svg11.dtd">
<svg width="100%" height="100%" viewBox="0 0 1443 423" version="1.1" xmlns="http://www.w3.org/2000/svg" xmlns:xlink="http://www.w3.org/1999/xlink" xml:space="preserve" xmlns:serif="http://www.serif.com/" style="fill-rule:evenodd;clip-rule:evenodd;stroke-linejoin:round;stroke-miterlimit:2;">
    <g id="Arrière-plan" transform="matrix(1.481505,0,0,1.481505,-44.841538,-356.275135)">
        <g transform="matrix(0.675985,-0.736915,0.736915,0.675985,-218.843229,258.529892)">
            <path d="M180.498,489.856C179.217,489.806 170.248,489.452 164.556,488.237C146.118,484.302 131.58,478.328 114.349,464.699C86.455,442.636 64.834,401.124 75.601,353.522C76.413,349.934 80.908,330.064 94.84,311.754C96.239,309.916 104.769,298.707 114.866,290.966C137.53,273.592 155.762,269.709 168.484,267.406C178.299,265.629 196.3,266.368 201.512,267.444C208.216,268.828 238.297,273.442 262.623,300.391C265.192,303.236 264.292,303.897 261.703,306.685C256.94,311.815 256.75,312.11 255.42,311.65C254.301,311.262 238.943,290.584 207.395,282.973C187.819,278.25 169.512,281.242 160.942,283.368C158.866,283.883 157.362,284.347 156.549,284.638C146.283,288.319 129.705,293.324 111.711,312.694C97.576,327.91 90.397,348.338 88.306,358.466C83.191,383.228 89.85,402.924 90.284,404.562C95.254,423.346 110.882,448.104 134.733,462.117C183.746,490.913 234.852,469.707 256.96,442.901C258.9,440.549 259.725,440.995 263.706,444.244C268.291,447.986 269.972,448.277 267.979,450.846C259.266,462.079 246.005,470.694 245.289,471.199C235.291,478.243 218.871,484.65 213.373,486.037C194.878,490.702 181.291,489.854 180.498,489.856Z" style="fill:rgb(2,53,128);"/>
        </g>
        <path d="M142.082,399.561C142.936,403.149 142.768,403.314 142.54,403.539C142.049,404.024 138.995,403.461 138.236,401.618C136.068,396.35 136.088,381.614 134.699,380.277C133.207,378.842 109.666,380.793 107.888,379.106C107.581,378.815 105.943,375.666 110.501,375.527C117.962,375.298 133.222,375.74 134.289,375.153C136.842,373.747 133.53,365.237 140.202,340.428C140.84,338.056 140.915,336.938 138.483,337.284C127.167,338.895 123.746,341.827 122.625,339.434C121.575,337.193 124.105,336.29 124.383,336.19C132.74,333.206 142.038,332.754 143.092,331.224C143.559,330.547 149.075,313.714 161.087,301.108C162.701,299.413 165.658,295.85 167.748,298.322C169.801,300.751 165.868,299.97 156.62,314.578C152.481,321.116 151.428,323.913 149.354,328.449C147.669,332.132 151.709,330.501 156.554,329.9C167.436,328.552 180.104,328.512 180.802,327.965C181.893,327.11 181.688,326.837 181.767,307.501C181.785,302.992 181.494,299.449 182.518,298.524C182.961,298.125 184.79,298.034 185.469,298.543C186.793,299.535 186.136,299.951 186.323,324.504C186.325,324.794 186.346,327.569 186.903,328.082C188.211,329.286 197.18,328.012 213.568,331.109C213.88,331.168 217.127,331.782 217.513,331.525C218.557,330.829 218.294,330.58 217.833,329.42C209.556,308.604 199.061,301.567 199.086,299.485C199.09,299.209 200.186,295.787 203.4,298.611C203.9,299.05 210.481,305.823 214.073,311.76C221.821,324.567 223.191,332.108 224.759,333.12C226.607,334.312 238.849,335.844 238.708,339.517C238.564,343.254 232.302,339.953 231.449,339.673C227.846,338.492 225.714,337.648 226.371,340.522C226.822,342.497 229.868,355.823 230.496,365.5C231.055,374.101 230.517,374.53 231.717,375.122C233.607,376.054 254.01,374.358 255.861,376.155C256.527,376.801 257.218,379.239 253.507,379.588C249.689,379.948 232.48,379.09 231.258,380.239C229.709,381.695 231.461,382.247 229.223,395.446C228.359,400.542 228.973,403.707 225.483,404.084C222.333,404.425 224.272,400.272 225.145,392.466C226.386,381.368 226.429,379.961 223.494,379.835C221.39,379.745 193.141,379.805 190.501,379.811C190.242,379.811 187.706,379.816 187.275,380.14C186.143,380.988 186.368,381.28 186.282,394.498C186.157,413.594 186.874,421.125 183.559,420.095C181.26,419.381 181.969,418.448 181.787,397.496C181.677,384.775 182.339,380.722 180.727,380.081C179.32,379.523 141.63,379.867 141.577,379.885C140.475,380.26 139.809,380.988 140.362,385.514C141.222,392.553 141.092,392.543 142.082,399.561ZM140.096,372.49C140.218,373.7 139.476,375.359 142.503,375.396C145.462,375.434 169.47,375.734 179.496,375.424C179.73,375.416 181.61,375.358 181.727,373.526C181.863,371.386 181.723,349.047 181.774,337.504C181.789,334.086 181.947,332.952 178.509,332.994C174.191,333.048 149.405,334.623 147.248,336.05C145.274,337.357 144.331,343.52 142.442,351.486C140.77,358.536 140.178,370.802 140.096,372.49ZM222.131,342.598C222.001,342.138 220.682,337.454 220.116,336.974C218.906,335.95 206.172,334.285 200.475,333.937C191.024,333.36 186.957,332.279 186.409,334.475C186.281,334.988 186.304,351.497 186.309,352.501C186.411,373.65 186.154,373.695 186.572,374.464C187.01,375.27 187.218,375.483 200.499,375.423C224.193,375.317 224.306,375.603 225.181,375.028C226.409,374.22 226.525,360.609 222.131,342.598Z" style="fill:rgb(7,56,128);"/>
        <path d="M188.152,440.307C194.483,429.136 203.579,417.529 221.674,410.936C225.907,409.394 226.06,410.186 230.414,409.141C231.297,408.929 237.839,407.36 241.557,406.934C256.074,405.269 256.493,406.157 256.801,407.412C257.266,409.314 256.918,426.831 256.884,428.519C256.849,430.282 257.071,430.631 255.446,431.255C253.956,431.826 221.513,427.833 193.546,452.554C184.452,460.592 184.414,463.499 181.946,461.045C175.925,455.057 175.947,455.068 169.408,449.612C163.524,444.703 149.67,436.731 136.42,433.863C121.009,430.526 111.184,431.752 110.19,430.889C108.788,429.67 109.443,429.379 109.459,427.499C109.606,410.092 109.104,407.831 109.862,406.763C111.166,404.927 127.229,407.597 128.424,407.834C147.876,411.692 155.669,416.32 163.827,423.084C165.312,424.315 173.818,431.367 179.111,441.728C182.689,448.731 182.035,451.399 183.489,451.406C185.1,451.413 183.68,448.982 188.152,440.307Z" style="fill:rgb(1,159,185);"/>
        <path d="M832.251,393.268C832.924,390.655 846.179,340.755 846.924,339.855C847.487,339.176 849.277,339.161 849.489,339.159C853.952,339.122 857.623,338.81 857.786,340.466C857.798,340.583 857.79,340.583 838.972,407.645C838.459,409.47 838.231,412.26 835.491,412.354C826.926,412.647 826.681,412.405 826.149,411.879C825.195,410.937 825.707,410.679 820.862,393.394C820.218,391.097 820.437,391.076 813.272,364.555C812.643,362.223 811.947,355.38 810.234,358.219C809.663,359.164 810.429,359.393 806.608,371.536C806.183,372.888 806.421,372.953 801.606,388.535C801.314,389.481 801.344,389.478 798.128,400.405C795.075,410.776 795.169,410.843 794.521,411.516C792.993,413.106 784.25,412.326 783.752,412.072C781.924,411.138 780.977,402.64 777.476,390.507C775.933,385.162 773.391,372.957 770.432,363.525C770.161,362.664 766.43,348.238 766.27,347.563C765.261,343.306 762.793,339.235 766.463,339.139C774.512,338.927 774.837,339.182 775.401,339.623C776.29,340.32 776.97,345.544 780.384,358.531C781.068,361.133 785.75,380.69 786.153,382.57C787.232,387.61 787.597,387.511 788.222,392.615C788.392,394.005 788.114,394.602 789.496,394.483C790.28,394.416 790.174,394.2 790.325,393.418C793.142,378.902 799.591,360.594 803.481,346.494C805.411,339.497 806.237,339.322 807.463,339.214C807.902,339.176 815.24,339.172 815.549,339.231C815.717,339.263 816.829,339.476 817.189,340.608C817.35,341.113 820.513,353.322 820.799,354.428C823.498,364.848 826.458,375.54 826.965,377.371C830.872,391.487 830.456,391.584 830.643,392.421C830.705,392.696 830.614,393.094 830.855,393.238C830.901,393.265 830.669,392.869 831.42,392.886C831.915,392.896 831.772,393.258 832.251,393.268Z" style="fill:rgb(3,157,182);"/>
        <path d="M356.936,357.522C357.837,364.151 359.167,365.307 375.437,369.709C379.007,370.675 406.059,374.462 399.589,398.524C397.556,406.082 387.468,415.185 368.485,413.686C354.055,412.546 347.898,403.917 346.759,402.321C342.563,396.439 344.087,395.019 344.558,394.58C344.919,394.244 352.468,391.369 353.45,391.755C355.935,392.733 355.172,400.985 366.44,402.822C382.448,405.432 388.922,398.868 388.945,392.503C389.01,374.662 347.301,385.573 345.648,359.49C345.531,357.648 344.758,345.45 357.605,339.756C368.261,335.033 389.702,335.041 397.331,350.578C399.085,354.152 397.317,354.241 393.617,355.778C392.23,356.354 389.003,358.314 387.817,356.303C386.734,354.466 385.2,349.504 375.533,347.352C371.743,346.507 365.548,347.293 362.367,349.252C357.66,352.149 357.317,355.482 356.936,357.522Z" style="fill:rgb(3,53,127);"/>
        <path d="M539.119,380.568C539.142,380.752 540.739,389.73 538.509,390.521C536.699,391.163 536.633,390.691 514.5,390.669C501.819,390.657 499.141,390.369 498.69,391.572C497.551,394.611 506.024,407.2 520.392,402.185C526.3,400.123 525.052,395.385 529.559,397.368C530.66,397.852 534.406,400.06 534.675,400.229C537.421,401.95 536.33,402.82 534.201,405.243C524.11,416.722 502.048,417.597 491.082,401.808C479.734,385.467 490.823,357.813 517.451,360.824C525.665,361.753 530.726,366.502 531.638,367.356C537.157,372.535 538.437,378.19 539.119,380.568ZM511.504,381.872C523.118,381.825 526.184,381.918 526.593,381.84C530.291,381.14 524.679,372.315 517.409,370.93C504.713,368.511 498.707,378.717 498.77,380.493C498.832,382.246 501.424,381.879 511.504,381.872Z" style="fill:rgb(2,53,127);"/>
        <path d="M659.075,391.553C659.071,391.518 656.532,379.894 665.323,369.364C678.419,353.678 711.391,358.201 711.44,387.499C711.446,390.608 710.59,390.684 707.497,390.669C704.698,390.655 678.841,390.53 672.508,390.658C672.058,390.667 669.783,390.692 670.786,393.411C674.768,404.207 689.205,406.276 696.285,399.283C698.225,397.368 698.448,395.74 702.722,398.079C706.817,400.321 709.242,400.712 706.351,404.385C694.11,419.93 663.308,416.541 659.075,391.553ZM684.504,381.872C698.259,381.849 698.258,381.917 698.603,381.847C702.892,380.967 694.254,367.159 680.426,371.272C674.768,372.955 669.446,379.912 671.421,381.611C671.857,381.986 675.36,381.884 684.504,381.872Z" style="fill:rgb(2,53,127);"/>
        <path d="M897.879,397.514C897.894,411.27 898.156,411.995 896.464,412.355C896.378,412.373 888.842,412.775 887.88,412.039C886.647,411.096 887.3,410.709 887.175,380.509C887.162,377.305 887.014,341.731 887.384,340.463C887.738,339.254 889.276,339.195 889.471,339.188C896.612,338.917 896.908,339.201 897.363,339.64C898.026,340.279 897.724,340.468 897.923,368.48C897.962,373.979 897.937,373.952 897.784,379.464C897.736,381.21 899.292,380.963 900.002,380.033C902.368,376.931 915.543,362.77 917.641,361.856C918.438,361.508 918.462,361.569 928.509,361.441C930.348,361.418 930.589,362.756 929.498,363.498C926.802,365.331 921.207,371.834 913.153,380.166C908.974,384.49 908.034,385.169 910.275,387.704C918.044,396.492 918.178,396.343 925.867,405.19C929.123,408.937 932.1,410.994 931.13,412.117C930.678,412.64 930.566,412.572 922.5,412.478C917.124,412.416 917.419,411.235 913.834,407.199C909.82,402.68 909.882,402.657 905.835,398.197C902.704,394.745 902.656,394.837 899.673,391.232C899.034,390.458 898.803,390.286 898.121,391.035C897.772,391.419 897.766,391.486 897.879,397.514Z" style="fill:rgb(2,157,183);"/>
        <path d="M573.532,371.042C573.124,371.02 570.042,370.851 568.433,371.233C562.611,372.613 560.559,377.588 560.227,378.394C558.188,383.335 560.405,410.24 558.823,411.825C557.78,412.87 549.303,412.376 548.791,412.054C548.141,411.645 547.859,411.468 547.957,402.496C548.073,391.894 547.885,365.677 548.081,363.438C548.294,361.02 550.836,361.532 553.499,361.545C557.466,361.565 559.297,360.66 559.04,364.61C558.911,366.598 560.011,366.84 561.423,365.406C567.579,359.156 578.69,359.65 584.72,363.114C596.551,369.911 595.333,381.233 595.257,396.493C595.203,407.166 595.496,410.912 594.752,411.715C593.659,412.897 585.503,412.497 584.859,412.003C584.237,411.525 584.186,408.788 584.181,408.502C583.739,384.84 587.019,373.195 573.532,371.042Z" style="fill:rgb(3,54,127);"/>
        <path d="M748.346,383.975C750.346,384.759 760.927,387.22 759.699,399.519C758.697,409.551 745.678,416.58 730.516,412.44C720.736,409.77 716.64,401.281 717.788,399.769C718.089,399.371 725.696,395.727 727.123,396.9C727.253,397.006 730.049,404.991 741.54,403.832C749.322,403.047 753.277,394.969 742.538,392.337C733.046,390.01 719.585,388.972 719.18,376.508C718.584,358.19 749.801,354.536 758.07,370.713C759.321,373.16 757.882,373.932 752.546,375.646C749.196,376.722 749.248,375.575 748.053,373.853C743.72,367.613 726.936,369.518 730.536,377.482C732.036,380.801 740.712,381.633 748.346,383.975Z" style="fill:rgb(3,54,128);"/>
        <path d="M610.617,369.604C623.265,356.248 642.669,358.329 651.834,370.247C654.864,374.187 651.953,374.338 647.665,376.8C643.895,378.964 643.391,376.826 642.342,375.644C637.08,369.717 626.818,369.332 620.426,375.417C609.97,385.37 616.964,402.963 630.517,403.095C643.589,403.222 641.853,394.342 646.413,396.673C653.384,400.236 653.432,400.819 653.487,401.501C653.616,403.082 646.548,412.684 633.512,413.67C609.625,415.477 594.912,389.02 610.617,369.604Z" style="fill:rgb(2,53,127);"/>
        <path d="M429.377,372.205C427.834,372.969 422.464,375.113 420.397,382.472C415.523,399.822 436.131,409.867 446.247,398.286C447.412,396.952 447.768,395.062 452.324,397.8C456.875,400.534 456.924,400.933 456.981,401.4C457.325,404.194 445.78,417.357 427.45,412.673C421.398,411.126 407.698,403.636 408.702,385.507C410.171,358.987 442.868,353.015 455.578,370.44C456.662,371.927 457.309,371.863 456.718,373.622C456.657,373.803 449.889,379.205 447.574,377.417C446.471,376.565 441.694,367.818 429.377,372.205Z" style="fill:rgb(3,53,126);"/>
        <path d="M875.754,383.502C875.688,409.564 876.381,411.86 874.453,412.344C873.934,412.474 866.494,412.602 865.659,412.19C864.39,411.565 864.748,411.086 864.674,387.498C864.668,385.58 864.609,366.784 864.74,363.514C864.748,363.301 864.816,361.607 866.503,361.523C867.138,361.492 872.647,361.219 874.45,361.666C875.98,362.045 875.755,362.722 875.754,383.502Z" style="fill:rgb(1,155,180);"/>
        <path d="M939.265,388.497C939.249,380.471 939.299,380.502 939.287,372.505C939.28,368.001 939.216,363.393 939.559,362.527C940.254,360.769 949.155,361.623 949.385,361.733C950.469,362.25 950.362,362.613 950.332,377.5C950.265,410.81 950.582,411.015 949.826,411.798C949.362,412.278 949.055,412.595 941.503,412.435C941.328,412.431 939.881,412.401 939.522,411.488C938.848,409.777 939.166,409.704 939.265,388.497Z" style="fill:rgb(4,160,184);"/>
        <path d="M466.359,373.5C466.333,366.614 466.288,363.168 466.598,362.545C467.085,361.563 469.256,361.57 469.501,361.57C472.053,361.578 476.637,361.218 477.156,362.632C477.703,364.124 477.397,364.181 477.356,382.5C477.33,394.024 477.345,393.994 477.409,405.499C477.434,409.971 478.056,412.378 474.498,412.402C471.198,412.425 467.224,412.746 466.579,411.463C466.037,410.385 466.332,376.537 466.359,373.5Z" style="fill:rgb(3,54,126);"/>
        <g transform="matrix(0.675985,-0.736915,0.736915,0.675985,-218.843229,258.529892)">
            <path d="M292.705,383.779C291.919,384.273 286.288,387.812 281.144,382.872C280.594,382.344 277.328,379.208 278.905,373.608C281.416,364.692 296.348,364.511 296.355,376.503C296.359,381.403 293.465,383.11 292.705,383.779Z" style="fill:rgb(3,158,184);"/>
        </g>
        <g transform="matrix(0.675985,-0.736915,0.736915,0.675985,-218.843229,258.529892)">
            <path d="M284.577,342.59C274.359,350.014 264.364,336.419 272.744,328.774C277.771,324.188 286.987,326.815 287.739,335.475C288.058,339.145 285.02,342.152 284.577,342.59Z" style="fill:rgb(3,156,181);"/>
        </g>
        <g transform="matrix(0.675985,-0.736915,0.736915,0.675985,-218.843229,258.529892)">
            <path d="M281.588,426.845C265.228,429.545 268.836,404.912 282.467,409.594C289.78,412.105 290.185,424.007 282.529,426.585C282.22,426.689 281.896,426.741 281.588,426.845Z" style="fill:rgb(3,158,183);"/>
        </g>
        <path d="M863.858,345.532C863.946,345.154 863.972,344.763 864.06,344.384C865.296,339.025 872.835,337.708 875.687,342.379C881.589,352.045 864.274,358.014 863.858,345.532Z" style="fill:rgb(4,155,179);"/>
        <path d="M477.813,348.636C473.308,357.454 461.978,350.237 466.457,342.472C469.581,337.055 478.775,339.593 478.354,346.49C478.354,346.49 477.856,348.464 477.813,348.636Z" style="fill:rgb(4,55,127);"/>
        <path d="M939.701,350.309C939.477,349.933 939.139,349.635 938.914,349.259C937.147,346.307 938.789,339.551 944.498,339.413C952.983,339.208 953.016,352.61 944.501,352.454C942.502,352.417 940.037,350.561 939.701,350.309Z" style="fill:rgb(4,161,185);"/>
    </g>
    <g id="Plan-de-travail1" serif:id="Plan de travail1" transform="matrix(2.153136,0,0,0.905165,-1250.972263,-426.332638)">
        <rect x="581" y="471" width="670" height="467" style="fill:none;"/>
    </g>
</svg>
